<svg xmlns="http://www.w3.org/2000/svg" width="113" height="132" viewBox="0 0 113 132"><g><g><g/><g><path fill="#0466a4" d="M0 88.364h5.322v2.076a5.586 5.586 0 0 1 4.52-2.412 4.655 4.655 0 0 1 4.38 2.47 6.248 6.248 0 0 1 5.078-2.47c3.253 0 5.182 1.994 5.182 5.543v9.94h-5.321v-8.235c0-1.67-.814-2.54-2.08-2.54-1.267 0-2.185.87-2.185 2.54v8.234H9.598v-8.234c0-1.67-.837-2.54-2.103-2.54-1.267 0-2.162.87-2.162 2.54v8.234H0z"/></g><g><path fill="#0466a4" d="M26.646 96.001a7.594 7.594 0 0 1 2.131-5.596 7.623 7.623 0 0 1 5.527-2.325c5.217 0 7.622 3.839 7.622 8.292v1.09H31.771a3.084 3.084 0 0 0 1.165 1.876c.607.46 1.363.68 2.123.618a4.4 4.4 0 0 0 3.358-1.543l2.951 2.436a7.816 7.816 0 0 1-6.565 3.085c-4.764 0-8.133-3.201-8.133-7.875zm10.342-1.252a2.735 2.735 0 0 0-.77-1.915A2.745 2.745 0 0 0 34.327 92c-1.43 0-2.324 1.067-2.638 2.749z"/></g><g><path fill="#0466a4" d="M44.22 88.36h5.333v3.05c.872-2.04 2.243-3.409 4.8-3.304v5.601h-.454c-2.8 0-4.346 1.566-4.346 5.068v4.732H44.22z"/></g><g><path fill="#0466a4" d="M56.26 86.99h5.52v-3.92h-5.52zm.105 16.514h5.31V88.358h-5.31z"/></g><g><path fill="#0466a4" d="M64.67 88.36h5.345v2.133A5.608 5.608 0 0 1 74.547 88c3.253 0 5.159 2.1 5.159 5.578v9.904h-5.299v-8.176c0-1.681-.848-2.574-2.161-2.574-1.313 0-2.243.893-2.243 2.574v8.2H64.67z"/></g><g><path fill="#0466a4" d="M81.86 96.003a8.366 8.366 0 0 1 2.604-5.634 8.398 8.398 0 0 1 11.548 0 8.366 8.366 0 0 1 2.603 5.634 8.105 8.105 0 0 1-2.554 5.717 8.136 8.136 0 0 1-5.87 2.204 7.996 7.996 0 0 1-5.834-2.171 7.969 7.969 0 0 1-2.497-5.692zm11.62.058a3.285 3.285 0 0 0-.883-2.433 3.3 3.3 0 0 0-2.37-1.047 3.177 3.177 0 0 0-2.991 2.118 3.16 3.16 0 0 0-.17 1.28 3.265 3.265 0 0 0 1.946 3.142c.401.177.834.272 1.272.28a3.202 3.202 0 0 0 2.324-.995 3.188 3.188 0 0 0 .872-2.369"/></g><g><path fill="#0466a4" d="M99.65 101.576l1.987-3.2a9.89 9.89 0 0 0 5.194 1.739c.918 0 1.371-.278 1.371-.812v-.058c0-.638-.871-.87-2.463-1.31-3.01-.754-5.392-1.798-5.392-4.825 0-3.224 2.615-5.01 6.089-5.01a11.822 11.822 0 0 1 6.251 1.763l-1.824 3.351a9.994 9.994 0 0 0-4.485-1.426c-.814 0-1.232.313-1.232.754v.058c0 .591.895.87 2.463 1.345 3.01.812 5.392 1.879 5.392 4.813v.058c0 3.328-2.498 5.068-6.205 5.068-2.57.013-5.075-.8-7.146-2.32"/></g><g><path fill="#06aade" d="M0 111.19h5.322v7.364a5.597 5.597 0 0 1 4.555-2.412c3.253 0 5.159 2.1 5.159 5.567v9.915h-5.31v-8.199c0-1.681-.837-2.574-2.15-2.574s-2.254.893-2.254 2.574v8.2H0z"/></g><g><path fill="#06aade" d="M17.19 124.14v-.057a8.366 8.366 0 0 1 2.584-5.644 8.398 8.398 0 0 1 11.548-.04 8.367 8.367 0 0 1 2.623 5.626v.058a8.105 8.105 0 0 1-2.554 5.717 8.135 8.135 0 0 1-5.87 2.204 7.996 7.996 0 0 1-5.834-2.171 7.969 7.969 0 0 1-2.497-5.692zm11.62 0v-.057a3.285 3.285 0 0 0-.883-2.433 3.3 3.3 0 0 0-2.37-1.047 3.177 3.177 0 0 0-2.987 2.11 3.16 3.16 0 0 0-.174 1.277v.058a3.276 3.276 0 0 0 1.948 3.138c.4.178.832.274 1.27.283a3.199 3.199 0 0 0 3.004-2.09c.15-.406.215-.84.191-1.273"/></g><g><path fill="#06aade" d="M36.17 116.494h5.333v2.076a5.562 5.562 0 0 1 4.52-2.413 4.655 4.655 0 0 1 4.37 2.459 6.296 6.296 0 0 1 5.077-2.459c3.254 0 5.194 1.984 5.194 5.544v9.939h-5.333v-8.234c0-1.682-.814-2.54-2.069-2.54s-2.196.858-2.196 2.54v8.234h-5.298v-8.234c0-1.682-.837-2.54-2.103-2.54-1.267 0-2.162.858-2.162 2.54v8.234H36.17z"/></g><g><path fill="#06aade" d="M62.816 124.139v-.058a7.606 7.606 0 0 1 2.138-5.596 7.635 7.635 0 0 1 5.53-2.325c5.218 0 7.623 3.839 7.623 8.292v1.09H67.93a3.072 3.072 0 0 0 1.159 1.875c.605.46 1.359.68 2.117.619a4.412 4.412 0 0 0 3.37-1.543l2.94 2.436a7.782 7.782 0 0 1-6.554 3.073c-4.775 0-8.133-3.19-8.133-7.863zm10.341-1.31a2.735 2.735 0 0 0-.77-1.915 2.745 2.745 0 0 0-1.89-.834c-1.441 0-2.324 1.067-2.638 2.749z"/></g><g><path fill="#0466a4" d="M28.189 0L0 24.1v39.847h56.204V24.1zm16.813 52.721H11.306V28.993L28.13 15.517l16.837 13.476v23.728"/></g><g><path fill="#06aade" d="M28.189 35.26H0v11.273h28.189z"/></g></g></g></svg>