<?xml version="1.0" encoding="UTF-8"?>
<!DOCTYPE svg PUBLIC "-//W3C//DTD SVG 1.1//EN" "http://www.w3.org/Graphics/SVG/1.1/DTD/svg11.dtd">
<!-- Creator: CorelDRAW -->
<svg xmlns="http://www.w3.org/2000/svg" xml:space="preserve" width="9.84252in" height="3.35293in" version="1.1" style="shape-rendering:geometricPrecision; text-rendering:geometricPrecision; image-rendering:optimizeQuality; fill-rule:evenodd; clip-rule:evenodd"
viewBox="0 0 9842.52 3352.93"
 xmlns:xlink="http://www.w3.org/1999/xlink"
 xmlns:xodm="http://www.corel.com/coreldraw/odm/2003">
 <defs>
  <style type="text/css">
   <![CDATA[
    .fil1 {fill:#00AFEF}
    .fil0 {fill:#201E1E}
    .fil2 {fill:#201E1E;fill-rule:nonzero}
   ]]>
  </style>
 </defs>
 <g id="Layer_x0020_1">
  <metadata id="CorelCorpID_0Corel-Layer"/>
  <g id="_2481500082480">
   <g>
    <path class="fil0" d="M1671.08 0c922.91,0 1671.08,748.17 1671.08,1671.08 0,73.9 -4.85,146.66 -14.15,218.02l-637.72 -95.64c4.77,-40.13 7.29,-80.96 7.29,-122.38 0,-566.92 -459.58,-1026.5 -1026.5,-1026.5 -566.92,0 -1026.5,459.58 -1026.5,1026.5 0,566.92 459.58,1026.5 1026.5,1026.5 206.16,0 398.09,-60.82 558.92,-165.43l357.2 536.59c-263.09,172.8 -577.83,273.42 -916.12,273.42 -922.91,0 -1671.08,-748.17 -1671.08,-1671.08 0,-922.91 748.17,-1671.08 1671.08,-1671.08z"/>
    <path class="fil1" d="M1671.08 1089.38c321.26,0 581.7,260.44 581.7,581.7 0,25.28 -1.61,50.19 -4.74,74.62l-518.33 -77.73c-11.57,-1.74 -22.42,3.21 -28.69,13.08 -6.27,9.87 -6.15,21.8 0.33,31.53l293.93 441.54c-92.64,62.3 -204.17,98.66 -324.2,98.66 -321.26,0 -581.7,-260.43 -581.7,-581.7 0,-321.26 260.43,-581.7 581.7,-581.7z"/>
    <path class="fil1" d="M2110.61 1969.93l912.05 1370.07c6.75,10.15 18.44,14.85 30.34,12.2 11.9,-2.65 20.5,-11.86 22.31,-23.92l109.2 -724.71c1.29,-8.56 5.74,-15.41 13.04,-20.07l568.8 -362.85c10.36,-6.61 15.28,-18.36 12.73,-30.39 -2.56,-12.02 -11.83,-20.76 -23.99,-22.58l-1616.13 -242.38c-11.56,-1.74 -22.42,3.22 -28.69,13.08 -6.27,9.87 -6.15,21.8 0.33,31.53z"/>
   </g>
   <path class="fil2" d="M7325.59 2323.59l104.08 326.2 -208.15 0 104.07 -326.2zm431.55 656.21l-302.08 -888.48 -258.93 0 -302.09 888.48 222.12 0 44.42 -139.62 330.01 0 44.42 139.62 222.12 0zm-1142.33 0l203.08 0 0 -888.48 -203.08 0 0 888.48zm176.43 -977.33c44.42,-44.42 44.42,-109.15 0,-151.04 -41.89,-44.42 -106.62,-44.42 -151.04,0 -41.89,41.89 -41.89,106.62 0,151.04 44.42,41.89 109.15,41.89 151.04,0zm-874.52 781.86l0 -497.54 152.31 0c69.81,0 126.93,22.84 170.08,68.54 44.42,44.42 66,105.35 66,180.23 0,74.89 -21.58,135.81 -66,181.5 -43.15,44.43 -100.27,67.27 -170.08,67.27l-152.31 0zm-203.08 -693.01l0 888.48 355.39 0c123.12,0 224.66,-41.89 307.16,-126.93 82.5,-85.04 124.39,-191.66 124.39,-317.31 0,-125.65 -41.89,-231 -124.39,-316.05 -82.5,-85.04 -184.04,-128.19 -307.16,-128.19l-355.39 0zm-469.63 535.63l317.32 0 0 -192.93 -317.32 0 0 -147.23 349.05 0 0 -195.47 -552.12 0 0 888.48 558.47 0 0 -195.47 -355.39 0 0 -157.39zm-558.47 -535.63l-241.16 394.74 -241.16 -394.74 -203.07 0 0 888.48 203.07 0 0 -516.59 229.74 376.96 22.84 0 229.74 -376.96 0 516.59 203.08 0 0 -888.48 -203.08 0zm4867.59 -556.51l289.39 -888.48 -222.12 0 -196.74 653.67 -196.73 -653.67 -222.12 0 289.39 888.48 258.93 0zm-827.55 0l203.07 0 0 -888.48 -203.07 0 0 888.48zm176.43 -977.33c44.42,-44.43 44.42,-109.15 0,-151.04 -41.89,-44.43 -106.62,-44.43 -151.04,0 -41.89,41.89 -41.89,106.61 0,151.04 44.43,41.89 109.15,41.89 151.04,0zm-925.29 88.85l0 195.47 228.46 0 0 693.01 203.08 0 0 -693.01 228.46 0 0 -195.47 -660.01 0zm-380.78 232.27l104.08 326.2 -208.15 0 104.07 -326.2zm431.55 656.21l-302.08 -888.48 -258.93 0 -302.09 888.48 222.12 0 44.42 -139.62 330.01 0 44.43 139.62 222.12 0zm-1212.14 -698.09c55.85,0 101.54,49.5 101.54,114.23 0,64.74 -45.69,114.23 -101.54,114.23l-152.31 0 0 -228.46 152.31 0zm330.01 698.09l-189.12 -326.2c97.73,-50.77 163.73,-149.77 163.73,-257.66 0,-85.04 -29.19,-156.12 -88.85,-215.77 -59.65,-59.66 -130.73,-88.85 -215.77,-88.85l-355.39 0 0 888.48 203.08 0 0 -291.93 96.46 0 167.54 291.93 218.31 0zm-1155.02 -352.85l317.31 0 0 -192.93 -317.31 0 0 -147.23 349.04 0 0 -195.47 -552.12 0 0 888.48 558.47 0 0 -195.46 -355.39 0 0 -157.39zm-748.86 -116.77l0 -228.46 133.28 0c62.19,0 107.89,49.5 107.89,114.23 0,64.74 -45.69,114.23 -107.89,114.23l-133.28 0zm-203.08 -418.85l0 888.48 203.08 0 0 -279.24 133.28 0c87.58,0 161.19,-29.19 220.85,-88.85 59.66,-59.66 90.12,-130.74 90.12,-215.78 0,-85.04 -30.46,-156.12 -90.12,-215.77 -59.65,-59.66 -133.27,-88.85 -220.85,-88.85l-336.35 0zm-761.55 634.63c-49.5,-49.5 -73.62,-112.96 -73.62,-190.39 0,-77.43 24.12,-140.89 73.62,-190.39 49.5,-49.5 111.69,-73.62 185.31,-73.62 73.61,0 134.54,24.11 184.04,73.62 49.5,49.5 74.89,112.96 74.89,190.39 0,77.43 -25.39,140.89 -74.89,190.39 -49.5,49.5 -110.43,73.62 -184.04,73.62 -73.62,0 -135.81,-24.12 -185.31,-73.62zm512.78 138.35c90.12,-88.85 134.54,-198 134.54,-328.74 0,-130.74 -44.42,-239.89 -134.54,-328.74 -90.12,-88.85 -199.28,-133.27 -327.47,-133.27 -128.2,0 -237.35,44.42 -327.47,133.27 -90.11,88.85 -134.54,198 -134.54,328.74 0,130.74 44.42,239.89 134.54,328.74 90.12,88.85 199.28,133.27 327.47,133.27 128.19,0 237.35,-44.42 327.47,-133.27z"/>
  </g>
 </g>
</svg>
